G04 (created by PCBNEW (2013-07-07 BZR 4022)-stable) date 5/2/2017 9:55:28 AM*
%MOIN*%
G04 Gerber Fmt 3.4, Leading zero omitted, Abs format*
%FSLAX34Y34*%
G01*
G70*
G90*
G04 APERTURE LIST*
%ADD10C,0.00590551*%
%ADD11C,0.0393701*%
%ADD12C,0.023622*%
%ADD13C,0.0393701*%
%ADD14C,0.011811*%
G04 APERTURE END LIST*
G54D10*
G54D11*
X767Y-5145D03*
X767Y-4145D03*
X18759Y-5145D03*
X18759Y-4145D03*
X18759Y-6102D03*
X18759Y-5570D03*
X4055Y-7224D03*
X1929Y-7263D03*
X5354Y-7125D03*
X9940Y-7440D03*
X15846Y-7440D03*
X10944Y-7440D03*
X6318Y-7440D03*
X1358Y-7263D03*
X767Y-7263D03*
G54D12*
X1929Y-7263D02*
X4015Y-7263D01*
X4015Y-7263D02*
X4055Y-7224D01*
G54D13*
X18759Y-5145D02*
X18994Y-5145D01*
X18994Y-5145D02*
X19114Y-5265D01*
X19114Y-5265D02*
X19114Y-5541D01*
X18759Y-5145D02*
X18446Y-5145D01*
X18446Y-5145D02*
X18238Y-5354D01*
X18238Y-5354D02*
X18238Y-5757D01*
G54D10*
G36*
X19251Y-7637D02*
X236Y-7637D01*
X236Y-5275D01*
X374Y-5275D01*
X398Y-5335D01*
X442Y-5403D01*
X498Y-5462D01*
X565Y-5508D01*
X639Y-5540D01*
X718Y-5558D01*
X799Y-5559D01*
X879Y-5545D01*
X955Y-5516D01*
X1023Y-5472D01*
X1082Y-5417D01*
X1128Y-5350D01*
X1161Y-5276D01*
X1162Y-5275D01*
X19251Y-5275D01*
X19251Y-7637D01*
X19251Y-7637D01*
G37*
G54D14*
X19251Y-7637D02*
X236Y-7637D01*
X236Y-5275D01*
X374Y-5275D01*
X398Y-5335D01*
X442Y-5403D01*
X498Y-5462D01*
X565Y-5508D01*
X639Y-5540D01*
X718Y-5558D01*
X799Y-5559D01*
X879Y-5545D01*
X955Y-5516D01*
X1023Y-5472D01*
X1082Y-5417D01*
X1128Y-5350D01*
X1161Y-5276D01*
X1162Y-5275D01*
X19251Y-5275D01*
X19251Y-7637D01*
M02*
