G04 (created by PCBNEW (2013-07-07 BZR 4022)-stable) date 5/2/2017 9:55:28 AM*
%MOIN*%
G04 Gerber Fmt 3.4, Leading zero omitted, Abs format*
%FSLAX34Y34*%
G01*
G70*
G90*
G04 APERTURE LIST*
%ADD10C,0.00590551*%
%ADD11R,0.02X0.03*%
%ADD12R,0.0358268X0.0480315*%
%ADD13R,0.055X0.035*%
%ADD14R,0.035X0.055*%
%ADD15C,0.0393701*%
%ADD16R,0.071X0.063*%
%ADD17R,0.059X0.0512*%
%ADD18R,0.0614173X0.102362*%
%ADD19R,0.0826772X0.192913*%
%ADD20C,0.019685*%
%ADD21C,0.0393701*%
%ADD22C,0.0275591*%
%ADD23C,0.023622*%
%ADD24C,0.011811*%
G04 APERTURE END LIST*
G54D10*
G54D11*
X15471Y-1503D03*
X16221Y-1503D03*
X15471Y-503D03*
X15846Y-1503D03*
X16221Y-503D03*
X3739Y-6503D03*
X4489Y-6503D03*
X3739Y-5503D03*
X4114Y-6503D03*
X4489Y-5503D03*
G54D12*
X13320Y-5984D03*
X12033Y-5984D03*
X13320Y-6929D03*
X12033Y-6929D03*
G54D13*
X2933Y-5707D03*
X2933Y-6457D03*
G54D14*
X2912Y-7224D03*
X3662Y-7224D03*
G54D15*
X767Y-5145D03*
X767Y-4145D03*
X18759Y-5145D03*
X18759Y-4145D03*
G54D16*
X13425Y-1652D03*
X13425Y-552D03*
X10944Y-5985D03*
X10944Y-7085D03*
X1929Y-5709D03*
X1929Y-6809D03*
X6318Y-5926D03*
X6318Y-7026D03*
G54D17*
X767Y-6121D03*
X767Y-6871D03*
X5354Y-6002D03*
X5354Y-6752D03*
X9940Y-6140D03*
X9940Y-6890D03*
X14421Y-1252D03*
X14421Y-502D03*
G54D18*
X16964Y-2557D03*
X15846Y-2557D03*
X14728Y-2557D03*
X14728Y-6734D03*
X15846Y-6734D03*
X16964Y-6734D03*
G54D19*
X8838Y-6181D03*
X7500Y-6181D03*
X7500Y-1692D03*
X8838Y-1692D03*
G54D15*
X18759Y-6102D03*
X18759Y-5570D03*
X4055Y-7224D03*
X1929Y-7263D03*
X5354Y-7125D03*
X9940Y-7440D03*
X15846Y-7440D03*
X10944Y-7440D03*
X6318Y-7440D03*
X1358Y-7263D03*
X767Y-7263D03*
G54D20*
X1287Y-4145D02*
X1181Y-4251D01*
X1181Y-4251D02*
X492Y-4251D01*
X492Y-4251D02*
X354Y-4114D01*
X354Y-4114D02*
X354Y-3740D01*
X354Y-3740D02*
X433Y-3661D01*
X433Y-3661D02*
X728Y-3661D01*
G54D21*
X7500Y-1692D02*
X7125Y-1318D01*
X7125Y-1318D02*
X3070Y-1318D01*
X3070Y-1318D02*
X728Y-3661D01*
X728Y-3661D02*
X531Y-3858D01*
X531Y-3858D02*
X531Y-3909D01*
X531Y-3909D02*
X767Y-4145D01*
X7500Y-1692D02*
X7125Y-2066D01*
X7125Y-2066D02*
X3366Y-2066D01*
X3366Y-2066D02*
X1287Y-4145D01*
X1287Y-4145D02*
X767Y-4145D01*
X7500Y-1692D02*
X3220Y-1692D01*
X3220Y-1692D02*
X767Y-4145D01*
G54D20*
X767Y-5145D02*
X992Y-5145D01*
X992Y-5145D02*
X1556Y-5709D01*
X1556Y-5709D02*
X1929Y-5709D01*
X767Y-5145D02*
X602Y-5145D01*
X602Y-5145D02*
X531Y-5216D01*
X531Y-5216D02*
X531Y-5884D01*
X531Y-5884D02*
X767Y-6121D01*
G54D22*
X3739Y-5503D02*
X3535Y-5707D01*
X3535Y-5707D02*
X2933Y-5707D01*
X3739Y-5503D02*
X3136Y-5503D01*
X3136Y-5503D02*
X2933Y-5707D01*
G54D21*
X2933Y-5707D02*
X1931Y-5707D01*
X1931Y-5707D02*
X1929Y-5709D01*
X1261Y-5709D02*
X1178Y-5709D01*
X1178Y-5709D02*
X767Y-6121D01*
X1929Y-5709D02*
X1261Y-5709D01*
X1261Y-5709D02*
X767Y-5216D01*
X767Y-5216D02*
X767Y-5145D01*
X767Y-5145D02*
X767Y-6121D01*
X18759Y-4145D02*
X19043Y-4145D01*
X19043Y-4145D02*
X19055Y-4133D01*
X19055Y-4133D02*
X19055Y-3850D01*
X18759Y-4145D02*
X18289Y-4145D01*
X18289Y-4145D02*
X18159Y-4015D01*
X18159Y-4015D02*
X18159Y-3198D01*
X18159Y-3198D02*
X18454Y-2903D01*
X18759Y-4145D02*
X18454Y-3840D01*
X18454Y-3840D02*
X18454Y-2903D01*
X18454Y-2903D02*
X18759Y-2598D01*
X18759Y-4145D02*
X19055Y-3850D01*
X19055Y-3850D02*
X19055Y-2893D01*
X19055Y-2893D02*
X18759Y-2598D01*
G54D23*
X18759Y-4145D02*
X18759Y-2598D01*
X18759Y-2598D02*
X18759Y-2224D01*
X18759Y-2224D02*
X17039Y-503D01*
X17039Y-503D02*
X16221Y-503D01*
X14421Y-502D02*
X13474Y-502D01*
X13474Y-502D02*
X13425Y-552D01*
X15471Y-503D02*
X14422Y-503D01*
X14422Y-503D02*
X14421Y-502D01*
X16221Y-503D02*
X15471Y-503D01*
X3662Y-7224D02*
X4055Y-7224D01*
X1929Y-6809D02*
X1929Y-7263D01*
G54D20*
X4114Y-6978D02*
X5128Y-6978D01*
X5128Y-6978D02*
X5354Y-6752D01*
G54D21*
X18759Y-5145D02*
X18994Y-5145D01*
X18994Y-5145D02*
X19114Y-5265D01*
X19114Y-5265D02*
X19114Y-5501D01*
X19114Y-5501D02*
X18745Y-5871D01*
X18759Y-5145D02*
X18446Y-5145D01*
X18446Y-5145D02*
X18248Y-5344D01*
X18248Y-5344D02*
X18248Y-5374D01*
X18248Y-5374D02*
X18745Y-5871D01*
X18745Y-5871D02*
X18759Y-5885D01*
G54D20*
X18759Y-5145D02*
X18759Y-5570D01*
X18759Y-5570D02*
X18759Y-5885D01*
X18759Y-5885D02*
X18759Y-6102D01*
X18759Y-6102D02*
X18759Y-6791D01*
X18759Y-6791D02*
X17972Y-7578D01*
X17972Y-7578D02*
X15984Y-7578D01*
X15984Y-7578D02*
X15846Y-7440D01*
X5354Y-6752D02*
X5354Y-7125D01*
X9940Y-6890D02*
X9940Y-7440D01*
X15846Y-7440D02*
X15669Y-7618D01*
X15669Y-7618D02*
X11122Y-7618D01*
X11122Y-7618D02*
X10944Y-7440D01*
X15846Y-6734D02*
X15846Y-7440D01*
X10944Y-7085D02*
X10944Y-7440D01*
X6318Y-7026D02*
X6318Y-7440D01*
X1358Y-6871D02*
X1358Y-7263D01*
X767Y-6871D02*
X767Y-7263D01*
X4114Y-6503D02*
X4114Y-6978D01*
X4114Y-6978D02*
X4114Y-7007D01*
X4114Y-7007D02*
X3897Y-7224D01*
X3897Y-7224D02*
X3662Y-7224D01*
G54D21*
X767Y-6871D02*
X1358Y-6871D01*
X1358Y-6871D02*
X1867Y-6871D01*
X1867Y-6871D02*
X1929Y-6809D01*
X6318Y-7026D02*
X6792Y-7500D01*
X6792Y-7500D02*
X9586Y-7500D01*
X9586Y-7500D02*
X9940Y-7145D01*
X9940Y-7145D02*
X9940Y-6890D01*
X5354Y-6752D02*
X5627Y-7026D01*
X5627Y-7026D02*
X6318Y-7026D01*
X9940Y-6890D02*
X10135Y-7085D01*
X10135Y-7085D02*
X10944Y-7085D01*
X12952Y-1318D02*
X14355Y-1318D01*
X14355Y-1318D02*
X14421Y-1252D01*
X8838Y-1692D02*
X9212Y-1318D01*
X9212Y-1318D02*
X12952Y-1318D01*
X12952Y-1318D02*
X13010Y-1318D01*
X13010Y-1318D02*
X13384Y-1692D01*
X13384Y-1692D02*
X13425Y-1652D01*
X8838Y-1692D02*
X9212Y-2066D01*
X9212Y-2066D02*
X13607Y-2066D01*
X13607Y-2066D02*
X14021Y-1652D01*
X8838Y-1692D02*
X13384Y-1692D01*
X13384Y-1692D02*
X13425Y-1652D01*
X14421Y-1252D02*
X14021Y-1652D01*
X14021Y-1652D02*
X13425Y-1652D01*
G54D23*
X15846Y-1503D02*
X15846Y-1200D01*
X15846Y-1200D02*
X15688Y-1043D01*
X15688Y-1043D02*
X14901Y-1043D01*
X14901Y-1043D02*
X14691Y-1252D01*
X14691Y-1252D02*
X14421Y-1252D01*
G54D20*
X15846Y-1830D02*
X15649Y-2027D01*
X15649Y-2027D02*
X15649Y-2360D01*
X15649Y-2360D02*
X15846Y-2557D01*
X15846Y-1830D02*
X16043Y-2027D01*
X16043Y-2027D02*
X16043Y-2360D01*
X16043Y-2360D02*
X15846Y-2557D01*
G54D23*
X15846Y-1503D02*
X15846Y-1692D01*
X15846Y-1692D02*
X15846Y-1830D01*
X15846Y-1830D02*
X15846Y-2557D01*
G54D21*
X16964Y-6734D02*
X16964Y-6177D01*
X13517Y-5787D02*
X13320Y-5984D01*
X16574Y-5787D02*
X13517Y-5787D01*
X16964Y-6177D02*
X16574Y-5787D01*
X14728Y-6734D02*
X14533Y-6929D01*
X14533Y-6929D02*
X13320Y-6929D01*
G54D20*
X4489Y-6503D02*
X4489Y-6140D01*
X4489Y-6140D02*
X4626Y-6002D01*
G54D23*
X5354Y-6002D02*
X4626Y-6002D01*
X4626Y-6002D02*
X3937Y-6002D01*
X3937Y-6002D02*
X3740Y-6200D01*
G54D20*
X3740Y-6200D02*
X3740Y-6502D01*
X3740Y-6502D02*
X3739Y-6503D01*
G54D21*
X5354Y-6002D02*
X6242Y-6002D01*
X6242Y-6002D02*
X6318Y-5926D01*
X7500Y-6181D02*
X7480Y-6161D01*
X7480Y-6161D02*
X6553Y-6161D01*
X6553Y-6161D02*
X6318Y-5926D01*
X6318Y-5926D02*
X7245Y-5926D01*
X7245Y-5926D02*
X7500Y-6181D01*
X2933Y-6457D02*
X2912Y-6478D01*
X2912Y-6478D02*
X2912Y-7224D01*
G54D20*
X16221Y-1503D02*
X16484Y-1503D01*
X16484Y-1503D02*
X16964Y-1984D01*
X16964Y-1984D02*
X16964Y-2557D01*
X16221Y-1503D02*
X16964Y-2247D01*
X16964Y-2247D02*
X16964Y-2557D01*
X15471Y-1503D02*
X15208Y-1503D01*
X15208Y-1503D02*
X14728Y-1984D01*
X14728Y-1984D02*
X14728Y-2557D01*
X15471Y-1503D02*
X14728Y-2247D01*
X14728Y-2247D02*
X14728Y-2557D01*
G54D21*
X8838Y-6181D02*
X9035Y-5984D01*
X9035Y-5984D02*
X10943Y-5984D01*
X10943Y-5984D02*
X10944Y-5985D01*
X8838Y-6181D02*
X8878Y-6140D01*
X8878Y-6140D02*
X9940Y-6140D01*
X10944Y-5985D02*
X10096Y-5985D01*
X10096Y-5985D02*
X9940Y-6140D01*
X10944Y-5985D02*
X11457Y-5985D01*
X11457Y-5985D02*
X12033Y-6561D01*
X10944Y-5985D02*
X12032Y-5985D01*
X12032Y-5985D02*
X12033Y-5984D01*
X12033Y-6929D02*
X12033Y-6561D01*
X12033Y-6561D02*
X12033Y-5984D01*
G54D10*
G36*
X19251Y-3011D02*
X17488Y-3011D01*
X17488Y-2024D01*
X17479Y-1982D01*
X17463Y-1943D01*
X17440Y-1907D01*
X17410Y-1877D01*
X17375Y-1853D01*
X17335Y-1837D01*
X17294Y-1828D01*
X17251Y-1828D01*
X17236Y-1828D01*
X17228Y-1812D01*
X17227Y-1811D01*
X17226Y-1809D01*
X17208Y-1787D01*
X17190Y-1764D01*
X17188Y-1762D01*
X17188Y-1762D01*
X17188Y-1762D01*
X17187Y-1761D01*
X16706Y-1281D01*
X16684Y-1262D01*
X16662Y-1244D01*
X16660Y-1243D01*
X16659Y-1242D01*
X16633Y-1228D01*
X16608Y-1214D01*
X16606Y-1213D01*
X16605Y-1213D01*
X16577Y-1204D01*
X16549Y-1195D01*
X16548Y-1195D01*
X16546Y-1195D01*
X16517Y-1192D01*
X16488Y-1189D01*
X16485Y-1188D01*
X16485Y-1188D01*
X16485Y-1188D01*
X16484Y-1188D01*
X16462Y-1188D01*
X16460Y-1186D01*
X16424Y-1162D01*
X16385Y-1146D01*
X16344Y-1137D01*
X16301Y-1137D01*
X16174Y-1137D01*
X16174Y-1135D01*
X16165Y-1106D01*
X16157Y-1076D01*
X16156Y-1074D01*
X16155Y-1073D01*
X16141Y-1045D01*
X16127Y-1018D01*
X16126Y-1017D01*
X16125Y-1015D01*
X16105Y-991D01*
X16086Y-967D01*
X16083Y-965D01*
X16083Y-964D01*
X16083Y-964D01*
X16083Y-964D01*
X15925Y-806D01*
X15901Y-787D01*
X15878Y-767D01*
X15876Y-766D01*
X15875Y-765D01*
X15847Y-750D01*
X15820Y-735D01*
X15819Y-735D01*
X15817Y-734D01*
X15787Y-725D01*
X15758Y-715D01*
X15756Y-715D01*
X15755Y-715D01*
X15724Y-712D01*
X15693Y-708D01*
X15690Y-708D01*
X15690Y-708D01*
X15690Y-708D01*
X15688Y-708D01*
X14901Y-708D01*
X14870Y-711D01*
X14840Y-714D01*
X14838Y-714D01*
X14836Y-715D01*
X14806Y-723D01*
X14777Y-732D01*
X14775Y-733D01*
X14774Y-733D01*
X14746Y-748D01*
X14719Y-762D01*
X14717Y-763D01*
X14716Y-764D01*
X14697Y-780D01*
X14696Y-780D01*
X14105Y-780D01*
X14063Y-788D01*
X14024Y-804D01*
X13988Y-828D01*
X13958Y-858D01*
X13934Y-893D01*
X13929Y-905D01*
X13129Y-905D01*
X13129Y-236D01*
X19251Y-236D01*
X19251Y-3011D01*
X19251Y-3011D01*
G37*
G54D24*
X19251Y-3011D02*
X17488Y-3011D01*
X17488Y-2024D01*
X17479Y-1982D01*
X17463Y-1943D01*
X17440Y-1907D01*
X17410Y-1877D01*
X17375Y-1853D01*
X17335Y-1837D01*
X17294Y-1828D01*
X17251Y-1828D01*
X17236Y-1828D01*
X17228Y-1812D01*
X17227Y-1811D01*
X17226Y-1809D01*
X17208Y-1787D01*
X17190Y-1764D01*
X17188Y-1762D01*
X17188Y-1762D01*
X17188Y-1762D01*
X17187Y-1761D01*
X16706Y-1281D01*
X16684Y-1262D01*
X16662Y-1244D01*
X16660Y-1243D01*
X16659Y-1242D01*
X16633Y-1228D01*
X16608Y-1214D01*
X16606Y-1213D01*
X16605Y-1213D01*
X16577Y-1204D01*
X16549Y-1195D01*
X16548Y-1195D01*
X16546Y-1195D01*
X16517Y-1192D01*
X16488Y-1189D01*
X16485Y-1188D01*
X16485Y-1188D01*
X16485Y-1188D01*
X16484Y-1188D01*
X16462Y-1188D01*
X16460Y-1186D01*
X16424Y-1162D01*
X16385Y-1146D01*
X16344Y-1137D01*
X16301Y-1137D01*
X16174Y-1137D01*
X16174Y-1135D01*
X16165Y-1106D01*
X16157Y-1076D01*
X16156Y-1074D01*
X16155Y-1073D01*
X16141Y-1045D01*
X16127Y-1018D01*
X16126Y-1017D01*
X16125Y-1015D01*
X16105Y-991D01*
X16086Y-967D01*
X16083Y-965D01*
X16083Y-964D01*
X16083Y-964D01*
X16083Y-964D01*
X15925Y-806D01*
X15901Y-787D01*
X15878Y-767D01*
X15876Y-766D01*
X15875Y-765D01*
X15847Y-750D01*
X15820Y-735D01*
X15819Y-735D01*
X15817Y-734D01*
X15787Y-725D01*
X15758Y-715D01*
X15756Y-715D01*
X15755Y-715D01*
X15724Y-712D01*
X15693Y-708D01*
X15690Y-708D01*
X15690Y-708D01*
X15690Y-708D01*
X15688Y-708D01*
X14901Y-708D01*
X14870Y-711D01*
X14840Y-714D01*
X14838Y-714D01*
X14836Y-715D01*
X14806Y-723D01*
X14777Y-732D01*
X14775Y-733D01*
X14774Y-733D01*
X14746Y-748D01*
X14719Y-762D01*
X14717Y-763D01*
X14716Y-764D01*
X14697Y-780D01*
X14696Y-780D01*
X14105Y-780D01*
X14063Y-788D01*
X14024Y-804D01*
X13988Y-828D01*
X13958Y-858D01*
X13934Y-893D01*
X13929Y-905D01*
X13129Y-905D01*
X13129Y-236D01*
X19251Y-236D01*
X19251Y-3011D01*
G54D10*
G36*
X2569Y-7637D02*
X236Y-7637D01*
X236Y-5992D01*
X239Y-6001D01*
X239Y-6003D01*
X240Y-6004D01*
X253Y-6030D01*
X256Y-6034D01*
X256Y-6398D01*
X264Y-6439D01*
X280Y-6479D01*
X304Y-6514D01*
X334Y-6544D01*
X369Y-6568D01*
X408Y-6584D01*
X449Y-6593D01*
X492Y-6593D01*
X1083Y-6593D01*
X1125Y-6585D01*
X1164Y-6569D01*
X1200Y-6545D01*
X1230Y-6515D01*
X1254Y-6480D01*
X1270Y-6441D01*
X1279Y-6399D01*
X1279Y-6357D01*
X1279Y-6194D01*
X1350Y-6123D01*
X1380Y-6123D01*
X1382Y-6126D01*
X1405Y-6162D01*
X1435Y-6192D01*
X1470Y-6216D01*
X1509Y-6232D01*
X1551Y-6241D01*
X1593Y-6241D01*
X2305Y-6241D01*
X2347Y-6233D01*
X2386Y-6216D01*
X2421Y-6193D01*
X2451Y-6163D01*
X2475Y-6128D01*
X2478Y-6121D01*
X2513Y-6121D01*
X2490Y-6143D01*
X2466Y-6179D01*
X2450Y-6218D01*
X2441Y-6259D01*
X2441Y-6302D01*
X2441Y-6653D01*
X2449Y-6695D01*
X2465Y-6734D01*
X2489Y-6770D01*
X2499Y-6779D01*
X2499Y-7224D01*
X2506Y-7304D01*
X2520Y-7350D01*
X2520Y-7520D01*
X2529Y-7562D01*
X2545Y-7601D01*
X2568Y-7636D01*
X2569Y-7637D01*
X2569Y-7637D01*
G37*
G54D24*
X2569Y-7637D02*
X236Y-7637D01*
X236Y-5992D01*
X239Y-6001D01*
X239Y-6003D01*
X240Y-6004D01*
X253Y-6030D01*
X256Y-6034D01*
X256Y-6398D01*
X264Y-6439D01*
X280Y-6479D01*
X304Y-6514D01*
X334Y-6544D01*
X369Y-6568D01*
X408Y-6584D01*
X449Y-6593D01*
X492Y-6593D01*
X1083Y-6593D01*
X1125Y-6585D01*
X1164Y-6569D01*
X1200Y-6545D01*
X1230Y-6515D01*
X1254Y-6480D01*
X1270Y-6441D01*
X1279Y-6399D01*
X1279Y-6357D01*
X1279Y-6194D01*
X1350Y-6123D01*
X1380Y-6123D01*
X1382Y-6126D01*
X1405Y-6162D01*
X1435Y-6192D01*
X1470Y-6216D01*
X1509Y-6232D01*
X1551Y-6241D01*
X1593Y-6241D01*
X2305Y-6241D01*
X2347Y-6233D01*
X2386Y-6216D01*
X2421Y-6193D01*
X2451Y-6163D01*
X2475Y-6128D01*
X2478Y-6121D01*
X2513Y-6121D01*
X2490Y-6143D01*
X2466Y-6179D01*
X2450Y-6218D01*
X2441Y-6259D01*
X2441Y-6302D01*
X2441Y-6653D01*
X2449Y-6695D01*
X2465Y-6734D01*
X2489Y-6770D01*
X2499Y-6779D01*
X2499Y-7224D01*
X2506Y-7304D01*
X2520Y-7350D01*
X2520Y-7520D01*
X2529Y-7562D01*
X2545Y-7601D01*
X2568Y-7636D01*
X2569Y-7637D01*
G54D10*
G36*
X19251Y-7637D02*
X17488Y-7637D01*
X17488Y-7226D01*
X17488Y-6201D01*
X17479Y-6159D01*
X17463Y-6120D01*
X17440Y-6084D01*
X17410Y-6054D01*
X17375Y-6031D01*
X17346Y-6018D01*
X17328Y-5985D01*
X17311Y-5952D01*
X17309Y-5950D01*
X17308Y-5948D01*
X17284Y-5918D01*
X17260Y-5888D01*
X17257Y-5885D01*
X17257Y-5885D01*
X17257Y-5885D01*
X17256Y-5884D01*
X16867Y-5495D01*
X16837Y-5470D01*
X16808Y-5446D01*
X16806Y-5445D01*
X16804Y-5443D01*
X16771Y-5425D01*
X16737Y-5407D01*
X16735Y-5406D01*
X16733Y-5405D01*
X16697Y-5394D01*
X16660Y-5383D01*
X16658Y-5382D01*
X16656Y-5382D01*
X16618Y-5378D01*
X16580Y-5374D01*
X16576Y-5374D01*
X16576Y-5374D01*
X16576Y-5374D01*
X16574Y-5374D01*
X13517Y-5374D01*
X13479Y-5377D01*
X13441Y-5381D01*
X13439Y-5381D01*
X13437Y-5381D01*
X13400Y-5392D01*
X13364Y-5403D01*
X13362Y-5404D01*
X13360Y-5405D01*
X13326Y-5423D01*
X13292Y-5440D01*
X13290Y-5442D01*
X13288Y-5443D01*
X13259Y-5467D01*
X13229Y-5491D01*
X13226Y-5494D01*
X13226Y-5494D01*
X13226Y-5494D01*
X13225Y-5495D01*
X13192Y-5527D01*
X13120Y-5527D01*
X13078Y-5535D01*
X13039Y-5551D01*
X13004Y-5575D01*
X12974Y-5605D01*
X12950Y-5640D01*
X12933Y-5679D01*
X12925Y-5721D01*
X12925Y-5763D01*
X12925Y-5871D01*
X12915Y-5902D01*
X12907Y-5982D01*
X12915Y-6063D01*
X12925Y-6096D01*
X12925Y-6245D01*
X12933Y-6287D01*
X12949Y-6326D01*
X12973Y-6361D01*
X13003Y-6392D01*
X13038Y-6415D01*
X13070Y-6429D01*
X13070Y-6483D01*
X13039Y-6496D01*
X13004Y-6520D01*
X12974Y-6550D01*
X12950Y-6585D01*
X12933Y-6624D01*
X12925Y-6666D01*
X12925Y-6708D01*
X12925Y-6816D01*
X12915Y-6846D01*
X12907Y-6926D01*
X12914Y-7006D01*
X12925Y-7041D01*
X12925Y-7190D01*
X12933Y-7232D01*
X12949Y-7271D01*
X12973Y-7306D01*
X13003Y-7336D01*
X13038Y-7360D01*
X13077Y-7377D01*
X13118Y-7385D01*
X13161Y-7385D01*
X13521Y-7385D01*
X13562Y-7377D01*
X13602Y-7361D01*
X13630Y-7342D01*
X14226Y-7342D01*
X14229Y-7348D01*
X14252Y-7383D01*
X14282Y-7413D01*
X14317Y-7437D01*
X14356Y-7453D01*
X14398Y-7462D01*
X14440Y-7462D01*
X15056Y-7462D01*
X15098Y-7454D01*
X15137Y-7438D01*
X15172Y-7414D01*
X15203Y-7384D01*
X15226Y-7349D01*
X15243Y-7310D01*
X15251Y-7268D01*
X15252Y-7226D01*
X15251Y-6201D01*
X15251Y-6200D01*
X16403Y-6200D01*
X16440Y-6238D01*
X16440Y-6242D01*
X16440Y-7267D01*
X16449Y-7308D01*
X16465Y-7348D01*
X16488Y-7383D01*
X16518Y-7413D01*
X16553Y-7437D01*
X16593Y-7453D01*
X16634Y-7462D01*
X16677Y-7462D01*
X17292Y-7462D01*
X17334Y-7454D01*
X17373Y-7438D01*
X17409Y-7414D01*
X17439Y-7384D01*
X17463Y-7349D01*
X17479Y-7310D01*
X17488Y-7268D01*
X17488Y-7226D01*
X17488Y-7637D01*
X3255Y-7637D01*
X3278Y-7602D01*
X3295Y-7563D01*
X3303Y-7522D01*
X3304Y-7479D01*
X3304Y-7350D01*
X3316Y-7310D01*
X3325Y-7230D01*
X3325Y-7224D01*
X3325Y-6814D01*
X3345Y-6801D01*
X3375Y-6771D01*
X3399Y-6736D01*
X3415Y-6697D01*
X3422Y-6664D01*
X3422Y-6675D01*
X3430Y-6716D01*
X3447Y-6756D01*
X3470Y-6791D01*
X3500Y-6821D01*
X3535Y-6845D01*
X3574Y-6861D01*
X3616Y-6870D01*
X3658Y-6870D01*
X3860Y-6870D01*
X3902Y-6862D01*
X3941Y-6846D01*
X3976Y-6822D01*
X4006Y-6792D01*
X4030Y-6757D01*
X4047Y-6718D01*
X4055Y-6676D01*
X4055Y-6634D01*
X4055Y-6358D01*
X4076Y-6337D01*
X4172Y-6337D01*
X4172Y-6373D01*
X4172Y-6675D01*
X4180Y-6716D01*
X4197Y-6756D01*
X4220Y-6791D01*
X4250Y-6821D01*
X4285Y-6845D01*
X4324Y-6861D01*
X4366Y-6870D01*
X4408Y-6870D01*
X4610Y-6870D01*
X4652Y-6862D01*
X4691Y-6846D01*
X4726Y-6822D01*
X4756Y-6792D01*
X4780Y-6757D01*
X4797Y-6718D01*
X4805Y-6676D01*
X4805Y-6634D01*
X4805Y-6337D01*
X4857Y-6337D01*
X4867Y-6361D01*
X4890Y-6396D01*
X4920Y-6426D01*
X4955Y-6450D01*
X4994Y-6466D01*
X5036Y-6475D01*
X5079Y-6475D01*
X5670Y-6475D01*
X5712Y-6467D01*
X5751Y-6451D01*
X5786Y-6427D01*
X5798Y-6416D01*
X5836Y-6416D01*
X5860Y-6432D01*
X5899Y-6449D01*
X5941Y-6457D01*
X5983Y-6458D01*
X6266Y-6458D01*
X6291Y-6477D01*
X6320Y-6502D01*
X6322Y-6503D01*
X6323Y-6504D01*
X6357Y-6522D01*
X6391Y-6541D01*
X6393Y-6542D01*
X6395Y-6543D01*
X6431Y-6554D01*
X6467Y-6565D01*
X6470Y-6566D01*
X6472Y-6566D01*
X6510Y-6570D01*
X6548Y-6574D01*
X6552Y-6574D01*
X6552Y-6574D01*
X6552Y-6574D01*
X6553Y-6574D01*
X6870Y-6574D01*
X6870Y-7166D01*
X6878Y-7208D01*
X6894Y-7247D01*
X6917Y-7283D01*
X6947Y-7313D01*
X6983Y-7337D01*
X7022Y-7353D01*
X7063Y-7362D01*
X7106Y-7362D01*
X7934Y-7362D01*
X7934Y-7362D01*
X8423Y-7362D01*
X8444Y-7362D01*
X9273Y-7362D01*
X9314Y-7353D01*
X9354Y-7337D01*
X9389Y-7314D01*
X9419Y-7284D01*
X9443Y-7249D01*
X9459Y-7210D01*
X9468Y-7168D01*
X9468Y-7125D01*
X9468Y-6554D01*
X9497Y-6554D01*
X9507Y-6564D01*
X9542Y-6588D01*
X9581Y-6604D01*
X9623Y-6613D01*
X9665Y-6613D01*
X10257Y-6613D01*
X10298Y-6605D01*
X10338Y-6588D01*
X10373Y-6565D01*
X10403Y-6535D01*
X10427Y-6500D01*
X10443Y-6461D01*
X10443Y-6460D01*
X10451Y-6468D01*
X10486Y-6491D01*
X10525Y-6508D01*
X10567Y-6516D01*
X10609Y-6517D01*
X11321Y-6516D01*
X11362Y-6508D01*
X11386Y-6498D01*
X11620Y-6732D01*
X11620Y-6929D01*
X11627Y-7009D01*
X11637Y-7041D01*
X11637Y-7190D01*
X11646Y-7232D01*
X11662Y-7271D01*
X11685Y-7306D01*
X11715Y-7336D01*
X11750Y-7360D01*
X11789Y-7377D01*
X11831Y-7385D01*
X11874Y-7385D01*
X12233Y-7385D01*
X12275Y-7377D01*
X12314Y-7361D01*
X12350Y-7337D01*
X12380Y-7307D01*
X12403Y-7272D01*
X12420Y-7233D01*
X12428Y-7192D01*
X12429Y-7149D01*
X12429Y-7042D01*
X12437Y-7015D01*
X12446Y-6934D01*
X12446Y-6929D01*
X12446Y-6561D01*
X12446Y-5984D01*
X12442Y-5944D01*
X12439Y-5905D01*
X12439Y-5904D01*
X12438Y-5903D01*
X12429Y-5871D01*
X12429Y-5722D01*
X12420Y-5681D01*
X12404Y-5641D01*
X12381Y-5606D01*
X12372Y-5597D01*
X12372Y-5275D01*
X19251Y-5275D01*
X19251Y-7637D01*
X19251Y-7637D01*
G37*
G54D24*
X19251Y-7637D02*
X17488Y-7637D01*
X17488Y-7226D01*
X17488Y-6201D01*
X17479Y-6159D01*
X17463Y-6120D01*
X17440Y-6084D01*
X17410Y-6054D01*
X17375Y-6031D01*
X17346Y-6018D01*
X17328Y-5985D01*
X17311Y-5952D01*
X17309Y-5950D01*
X17308Y-5948D01*
X17284Y-5918D01*
X17260Y-5888D01*
X17257Y-5885D01*
X17257Y-5885D01*
X17257Y-5885D01*
X17256Y-5884D01*
X16867Y-5495D01*
X16837Y-5470D01*
X16808Y-5446D01*
X16806Y-5445D01*
X16804Y-5443D01*
X16771Y-5425D01*
X16737Y-5407D01*
X16735Y-5406D01*
X16733Y-5405D01*
X16697Y-5394D01*
X16660Y-5383D01*
X16658Y-5382D01*
X16656Y-5382D01*
X16618Y-5378D01*
X16580Y-5374D01*
X16576Y-5374D01*
X16576Y-5374D01*
X16576Y-5374D01*
X16574Y-5374D01*
X13517Y-5374D01*
X13479Y-5377D01*
X13441Y-5381D01*
X13439Y-5381D01*
X13437Y-5381D01*
X13400Y-5392D01*
X13364Y-5403D01*
X13362Y-5404D01*
X13360Y-5405D01*
X13326Y-5423D01*
X13292Y-5440D01*
X13290Y-5442D01*
X13288Y-5443D01*
X13259Y-5467D01*
X13229Y-5491D01*
X13226Y-5494D01*
X13226Y-5494D01*
X13226Y-5494D01*
X13225Y-5495D01*
X13192Y-5527D01*
X13120Y-5527D01*
X13078Y-5535D01*
X13039Y-5551D01*
X13004Y-5575D01*
X12974Y-5605D01*
X12950Y-5640D01*
X12933Y-5679D01*
X12925Y-5721D01*
X12925Y-5763D01*
X12925Y-5871D01*
X12915Y-5902D01*
X12907Y-5982D01*
X12915Y-6063D01*
X12925Y-6096D01*
X12925Y-6245D01*
X12933Y-6287D01*
X12949Y-6326D01*
X12973Y-6361D01*
X13003Y-6392D01*
X13038Y-6415D01*
X13070Y-6429D01*
X13070Y-6483D01*
X13039Y-6496D01*
X13004Y-6520D01*
X12974Y-6550D01*
X12950Y-6585D01*
X12933Y-6624D01*
X12925Y-6666D01*
X12925Y-6708D01*
X12925Y-6816D01*
X12915Y-6846D01*
X12907Y-6926D01*
X12914Y-7006D01*
X12925Y-7041D01*
X12925Y-7190D01*
X12933Y-7232D01*
X12949Y-7271D01*
X12973Y-7306D01*
X13003Y-7336D01*
X13038Y-7360D01*
X13077Y-7377D01*
X13118Y-7385D01*
X13161Y-7385D01*
X13521Y-7385D01*
X13562Y-7377D01*
X13602Y-7361D01*
X13630Y-7342D01*
X14226Y-7342D01*
X14229Y-7348D01*
X14252Y-7383D01*
X14282Y-7413D01*
X14317Y-7437D01*
X14356Y-7453D01*
X14398Y-7462D01*
X14440Y-7462D01*
X15056Y-7462D01*
X15098Y-7454D01*
X15137Y-7438D01*
X15172Y-7414D01*
X15203Y-7384D01*
X15226Y-7349D01*
X15243Y-7310D01*
X15251Y-7268D01*
X15252Y-7226D01*
X15251Y-6201D01*
X15251Y-6200D01*
X16403Y-6200D01*
X16440Y-6238D01*
X16440Y-6242D01*
X16440Y-7267D01*
X16449Y-7308D01*
X16465Y-7348D01*
X16488Y-7383D01*
X16518Y-7413D01*
X16553Y-7437D01*
X16593Y-7453D01*
X16634Y-7462D01*
X16677Y-7462D01*
X17292Y-7462D01*
X17334Y-7454D01*
X17373Y-7438D01*
X17409Y-7414D01*
X17439Y-7384D01*
X17463Y-7349D01*
X17479Y-7310D01*
X17488Y-7268D01*
X17488Y-7226D01*
X17488Y-7637D01*
X3255Y-7637D01*
X3278Y-7602D01*
X3295Y-7563D01*
X3303Y-7522D01*
X3304Y-7479D01*
X3304Y-7350D01*
X3316Y-7310D01*
X3325Y-7230D01*
X3325Y-7224D01*
X3325Y-6814D01*
X3345Y-6801D01*
X3375Y-6771D01*
X3399Y-6736D01*
X3415Y-6697D01*
X3422Y-6664D01*
X3422Y-6675D01*
X3430Y-6716D01*
X3447Y-6756D01*
X3470Y-6791D01*
X3500Y-6821D01*
X3535Y-6845D01*
X3574Y-6861D01*
X3616Y-6870D01*
X3658Y-6870D01*
X3860Y-6870D01*
X3902Y-6862D01*
X3941Y-6846D01*
X3976Y-6822D01*
X4006Y-6792D01*
X4030Y-6757D01*
X4047Y-6718D01*
X4055Y-6676D01*
X4055Y-6634D01*
X4055Y-6358D01*
X4076Y-6337D01*
X4172Y-6337D01*
X4172Y-6373D01*
X4172Y-6675D01*
X4180Y-6716D01*
X4197Y-6756D01*
X4220Y-6791D01*
X4250Y-6821D01*
X4285Y-6845D01*
X4324Y-6861D01*
X4366Y-6870D01*
X4408Y-6870D01*
X4610Y-6870D01*
X4652Y-6862D01*
X4691Y-6846D01*
X4726Y-6822D01*
X4756Y-6792D01*
X4780Y-6757D01*
X4797Y-6718D01*
X4805Y-6676D01*
X4805Y-6634D01*
X4805Y-6337D01*
X4857Y-6337D01*
X4867Y-6361D01*
X4890Y-6396D01*
X4920Y-6426D01*
X4955Y-6450D01*
X4994Y-6466D01*
X5036Y-6475D01*
X5079Y-6475D01*
X5670Y-6475D01*
X5712Y-6467D01*
X5751Y-6451D01*
X5786Y-6427D01*
X5798Y-6416D01*
X5836Y-6416D01*
X5860Y-6432D01*
X5899Y-6449D01*
X5941Y-6457D01*
X5983Y-6458D01*
X6266Y-6458D01*
X6291Y-6477D01*
X6320Y-6502D01*
X6322Y-6503D01*
X6323Y-6504D01*
X6357Y-6522D01*
X6391Y-6541D01*
X6393Y-6542D01*
X6395Y-6543D01*
X6431Y-6554D01*
X6467Y-6565D01*
X6470Y-6566D01*
X6472Y-6566D01*
X6510Y-6570D01*
X6548Y-6574D01*
X6552Y-6574D01*
X6552Y-6574D01*
X6552Y-6574D01*
X6553Y-6574D01*
X6870Y-6574D01*
X6870Y-7166D01*
X6878Y-7208D01*
X6894Y-7247D01*
X6917Y-7283D01*
X6947Y-7313D01*
X6983Y-7337D01*
X7022Y-7353D01*
X7063Y-7362D01*
X7106Y-7362D01*
X7934Y-7362D01*
X7934Y-7362D01*
X8423Y-7362D01*
X8444Y-7362D01*
X9273Y-7362D01*
X9314Y-7353D01*
X9354Y-7337D01*
X9389Y-7314D01*
X9419Y-7284D01*
X9443Y-7249D01*
X9459Y-7210D01*
X9468Y-7168D01*
X9468Y-7125D01*
X9468Y-6554D01*
X9497Y-6554D01*
X9507Y-6564D01*
X9542Y-6588D01*
X9581Y-6604D01*
X9623Y-6613D01*
X9665Y-6613D01*
X10257Y-6613D01*
X10298Y-6605D01*
X10338Y-6588D01*
X10373Y-6565D01*
X10403Y-6535D01*
X10427Y-6500D01*
X10443Y-6461D01*
X10443Y-6460D01*
X10451Y-6468D01*
X10486Y-6491D01*
X10525Y-6508D01*
X10567Y-6516D01*
X10609Y-6517D01*
X11321Y-6516D01*
X11362Y-6508D01*
X11386Y-6498D01*
X11620Y-6732D01*
X11620Y-6929D01*
X11627Y-7009D01*
X11637Y-7041D01*
X11637Y-7190D01*
X11646Y-7232D01*
X11662Y-7271D01*
X11685Y-7306D01*
X11715Y-7336D01*
X11750Y-7360D01*
X11789Y-7377D01*
X11831Y-7385D01*
X11874Y-7385D01*
X12233Y-7385D01*
X12275Y-7377D01*
X12314Y-7361D01*
X12350Y-7337D01*
X12380Y-7307D01*
X12403Y-7272D01*
X12420Y-7233D01*
X12428Y-7192D01*
X12429Y-7149D01*
X12429Y-7042D01*
X12437Y-7015D01*
X12446Y-6934D01*
X12446Y-6929D01*
X12446Y-6561D01*
X12446Y-5984D01*
X12442Y-5944D01*
X12439Y-5905D01*
X12439Y-5904D01*
X12438Y-5903D01*
X12429Y-5871D01*
X12429Y-5722D01*
X12420Y-5681D01*
X12404Y-5641D01*
X12381Y-5606D01*
X12372Y-5597D01*
X12372Y-5275D01*
X19251Y-5275D01*
X19251Y-7637D01*
M02*
